<svg width="30" height="30" fill="none" xmlns="http://www.w3.org/2000/svg"><path fill-rule="evenodd" clip-rule="evenodd" d="M15 0C6.716 0 0 6.716 0 15c0 8.284 6.716 15 15 15 8.284 0 15-6.716 15-15 0-8.284-6.716-15-15-15z" fill="#92C746"/><path fill-rule="evenodd" clip-rule="evenodd" d="M18.962.569L15 4.53v2.192l5.601-5.602c-.532-.214-1.079-.4-1.64-.552zm8.356 23.022l-3.762 3.763a15.078 15.078 0 0 0 3.762-3.763zM15.011.036L15 .046V2.24L17.059.18A15.131 15.131 0 0 0 15.01.036zm4.165 29.406l10.23-10.23c.254-.875.432-1.781.522-2.714L16.462 29.964a14.93 14.93 0 0 0 2.714-.522zm10.556-17.227L15 26.947v2.192l14.973-14.973a15.009 15.009 0 0 0-.241-1.95zM18.408 7.798l5.108-5.108a14.984 14.984 0 0 0-1.355-.837l-5.384 5.384a7.924 7.924 0 0 1 1.631.56zM23 15.036c0 .63-.075 1.244-.213 1.833l6.477-6.477a14.905 14.905 0 0 0-.615-1.577l-5.67 5.67c.012.182.021.365.021.55zm-8 8v1.62l1.833-1.833a8.035 8.035 0 0 1-1.833.213zm7.609-10.473l5.25-5.25a14.908 14.908 0 0 0-.883-1.308l-5.043 5.042c.275.477.503.984.676 1.516zm-1.636-2.847l4.952-4.952a15.078 15.078 0 0 0-1.119-1.073l-4.972 4.972c.413.313.794.667 1.139 1.053z" fill="#3BA510"/><path fill-rule="evenodd" clip-rule="evenodd" d="M15 7v16a8 8 0 1 0 0-16z" fill="#fff"/><path fill-rule="evenodd" clip-rule="evenodd" d="M17.116 18.465c-.43-.43-.941-2.03-.707-2.263.234-.234 1.833.277 2.262.707a1.1 1.1 0 1 1-1.555 1.556zm1.542-5.374c-.43.43-2.029.94-2.263.707-.234-.235.278-1.833.708-2.262a1.1 1.1 0 1 1 1.555 1.555z" fill="#327216"/></svg>