<svg viewBox="0 0 150 150" xmlns="http://www.w3.org/2000/svg"><circle cx="75" cy="43" fill="#ff6119" r="43"/><path d="m42 96h66c14.911688 0 27 12.088312 27 27v19c0 4.418278-3.581722 8-8 8h-104c-4.418278 0-8-3.581722-8-8v-19c0-14.911688 12.0883118-27 27-27z" fill="#ff6119"/><path d="m75 67.2329 40.003-40.002c-1.006-2.55-2.247-4.978-3.699-7.262l-36.304 36.304zm20.0859 13.7876c7.63-4.039 13.896-10.305 17.935-17.935zm5.3995-72.6499-25.485 25.486v10.96l31.292-31.292c-1.777-1.886-3.717-3.614-5.807-5.154m7.5146 87.6294h-5.478l-27.522 27.522v10.961l38.012-38.011c-1.625-.305-3.299-.472-5.012-.472m-33 5.1064v10.96l16.066-16.066h-10.96zm59.7695 18.42c-.384-2.989-1.253-5.827-2.532-8.428l-38.902 38.902h10.961zm-7.248-15.168c-1.801-1.885-3.87-3.509-6.149-4.811l-46.372 46.373v4.08h6.879zm7.4785 37.3545v-10.96l-19.247 19.247h10.96zm-17.1787-94.8843c.111-1.262.179-2.538.179-3.829 0-2.305-.187-4.567-.536-6.774l-42.464 42.464v7.31c1.291 0 2.566-.067 3.828-.178zm-42.8213-24.4292 18.31-18.31c-2.571-1.211-5.282-2.173-8.1-2.859l-10.21 10.209z" fill="#ffba32"/></svg>