<svg xmlns="http://www.w3.org/2000/svg" viewBox="0 0 150 150"><path fill="#53c8ed" d="M75 0C33.578 0 0 33.578 0 75c0 41.421 33.578 75 75 75s75-33.579 75-75c0-41.422-33.578-75-75-75"/><g fill="#3595d6"><path d="M106.4678 69.2139l32.831-32.831c-1.36-2.261-2.837-4.442-4.421-6.539l-31.118 31.118c1.26 2.575 2.178 5.345 2.708 8.252M75 145.5146l74.865-74.864c-.189-3.315-.601-6.568-1.208-9.753L75 134.5546zM80.6445 106.4932l-5.645 5.646v10.959l71.319-71.318c-.879-2.699-1.909-5.329-3.076-7.885l-36.749 36.749c-2.341 13.147-12.703 23.508-25.849 25.849M85.9307 44.918l31.649-31.649c-2.18-1.507-4.436-2.912-6.775-4.185l-33.973 33.972c3.18.179 6.235.821 9.099 1.862M99.1943 54.0703l30.433-30.432c-1.772-1.883-3.64-3.672-5.596-5.365l-30.586 30.586c2.122 1.5 4.053 3.251 5.749 5.211M136.5908 117.7773l-18.813 18.813c7.334-5.103 13.709-11.479 18.813-18.813M75 33.4316l28.006-28.006c-2.661-1.072-5.396-1.997-8.198-2.763L75 22.4716zM95.8789 147.0322l51.153-51.153c1.266-4.373 2.157-8.905 2.608-13.568l-67.328 67.328c4.663-.451 9.194-1.341 13.567-2.607M75 11.0146L85.294.7206c-3.35-.46-6.765-.717-10.24-.72L75 .0546z"/></g><path fill="#005b98" d="M107 75c0 17.673-14.327 32-32 32S43 92.673 43 75s14.327-32 32-32 32 14.327 32 32"/></svg>
