<svg xmlns="http://www.w3.org/2000/svg" fill="none" viewBox="0 0 120 120"><defs/><path fill="#0081A5" d="M82 60a22 22 0 01-22 22v38A60 60 0 0060 0v38a22 22 0 0122 22z"/><path fill="#0D8282" d="M74 1.7A57.2 57.2 0 0060 0v38c1.7 0 3.4.2 5.1.6l8.8-37z"/><path fill="#53C8ED" d="M98.2 13.8L71 41a23 23 0 015 3.8l26.8-26.9a76 76 0 00-4.6-4.1zm-17-10c-2.3-.8-4.5-1.5-6.8-2l-.7.7L71 14 81 3.8zM65.3 37.5L93 10a47.2 47.2 0 00-5.6-3.2L68.1 26l-2.7 11.5z"/><path fill="#fff" d="M88 75.6l-6-3.3-9.4 9.5 3.3 5.9L88 75.6zM99.5 82l-5.9-3.3-14.5 14.5 3.4 5.8 17-17zm11.5 6.4l-5.9-3.3-19.5 19.5 3.4 5.9 22-22.1z"/><path fill="#00B5B5" d="M60 82a22 22 0 010-44V0a60 60 0 000 120V82z"/></svg>