<svg viewBox="0 0 150 150" xmlns="http://www.w3.org/2000/svg"><g fill="none"><path d="m111.5 5.065c-16.5 0-30 9.5-36.5 23.5-6.5-14-20-23.5-36.5-23.5-23.5 0-38.5 19.5-38.5 43 0 54 75 97 75 97s75-42.5 75-97c0-23.5-15-43-38.5-43" fill="#132d89"/><path d="m75 28.565v116.5s75-42.5 75-97c0-23.5-15-43-38.5-43-16.5 0-30 9.5-36.5 23.5z" fill="#425dbf"/><path d="m103 75-28 28v11l39-39zm33.5 0h-11l-49 49.5-1.5 1v11l12-12zm-37.5 49.5-14.5 14.5c5-3.5 12-8.5 19.5-14.5 12.5-10.5 26.5-24.5 36-41zm-18.5-49.5-5.5 5.5v11l16.5-16.5z" fill="#132d89"/></g></svg>